<svg width="96" height="96" viewBox="0 0 96 96" fill="none" xmlns="http://www.w3.org/2000/svg">
    <path opacity="0.9"
        d="M78.7199 47.9999V81.0666C78.7199 84.0121 76.332 86.3999 73.3865 86.3999H22.6132C19.6677 86.3999 17.2799 84.0121 17.2799 81.0666V47.9999M47.9999 86.3999V28.7999M47.9999 28.7999H30.7199C28.1738 28.7999 25.732 27.7885 23.9316 25.9882C22.1313 24.1878 21.1199 21.746 21.1199 19.1999C21.1199 16.6539 22.1313 14.2121 23.9316 12.4117C25.732 10.6114 28.1738 9.59995 30.7199 9.59995C44.1599 9.59995 47.9999 28.7999 47.9999 28.7999ZM47.9999 28.7999H65.2799C67.8259 28.7999 70.2677 27.7885 72.0681 25.9882C73.8684 24.1878 74.8799 21.746 74.8799 19.1999C74.8799 16.6539 73.8684 14.2121 72.0681 12.4117C70.2677 10.6114 67.8259 9.59995 65.2799 9.59995C51.8399 9.59995 47.9999 28.7999 47.9999 28.7999ZM14.9332 47.9999H81.0665C84.012 47.9999 86.3999 45.6121 86.3999 42.6666V34.1333C86.3999 31.1878 84.012 28.7999 81.0665 28.7999H14.9332C11.9877 28.7999 9.59985 31.1878 9.59985 34.1333V42.6666C9.59985 45.6121 11.9877 47.9999 14.9332 47.9999Z"
        stroke="white" stroke-width="2.66667" stroke-linecap="round" stroke-linejoin="round" />
</svg>