<svg width="96" height="96" viewBox="0 0 96 96" fill="none" xmlns="http://www.w3.org/2000/svg">
    <g opacity="0.9">
        <path
            d="M50.3827 8.08817L50.4749 6.75802L48.6674 6.63273L49.0853 8.39568L50.3827 8.08817ZM84.8032 33.9823L85.2633 35.2338L86.5128 34.7743L86.0553 33.5241L84.8032 33.9823ZM50.6036 9.02045L49.3063 9.32796V9.32797L50.6036 9.02045ZM51.2521 10.2283L50.2789 11.1398L50.2789 11.1398L51.2521 10.2283ZM52.6625 11.7342L51.6893 12.6456V12.6456L52.6625 11.7342ZM53.222 14.4691L54.4749 14.9252V14.9252L53.222 14.4691ZM52.6486 16.0447L51.3956 15.5887L51.3956 15.5887L52.6486 16.0447ZM54.2423 19.4626L54.6984 18.2097L54.6984 18.2097L54.2423 19.4626ZM55.3191 19.8545L54.8631 21.1074L54.8631 21.1074L55.3191 19.8545ZM57.0584 22.6458L55.7327 22.503L57.0584 22.6458ZM56.5336 27.5202L57.8593 27.6629V27.6629L56.5336 27.5202ZM57.2387 29.6285L56.2655 30.54L56.2655 30.54L57.2387 29.6285ZM61.4186 34.0915L60.4454 35.0029V35.0029L61.4186 34.0915ZM63.8877 34.8835L63.6263 33.576H63.6263L63.8877 34.8835ZM73.2636 33.009L73.525 34.3165L73.525 34.3165L73.2636 33.009ZM74.1824 32.9869L73.9844 34.3054H73.9844L74.1824 32.9869ZM82.9701 34.3066L83.1681 32.988L82.9701 34.3066ZM84.2863 34.1723L84.7464 35.4238L84.2863 34.1723ZM25.6037 80.5236L24.862 81.6317L25.5764 82.1098L26.3067 81.6566L25.6037 80.5236ZM28.6114 12.8354L29.5198 11.8594L28.8153 11.2036L27.971 11.6659L28.6114 12.8354ZM31.577 15.5956L32.4854 14.6196L32.4854 14.6196L31.577 15.5956ZM32.1093 16.2857L33.2839 15.6547V15.6547L32.1093 16.2857ZM34.0276 19.8566L32.853 20.4875L32.8936 20.5632L32.9436 20.633L34.0276 19.8566ZM37.7834 25.1003L36.6994 25.8766L36.6994 25.8767L37.7834 25.1003ZM38.4382 32.1725L37.183 32.6221L37.183 32.6221L38.4382 32.1725ZM39.6828 35.6478L38.4276 36.0973L38.4276 36.0973L39.6828 35.6478ZM38.5783 38.8128L39.2813 39.9457L38.5783 38.8128ZM34.2483 41.4996L33.5453 40.3667L33.5452 40.3667L34.2483 41.4996ZM33.8374 41.8135L32.929 40.8375V40.8375L33.8374 41.8135ZM29.773 45.5966L28.8646 44.6206L29.773 45.5966ZM24.5661 50.443L23.6577 49.467H23.6577L24.5661 50.443ZM23.8076 53.0867L25.0953 52.7408H25.0953L23.8076 53.0867ZM25.32 58.7176L24.0323 59.0635V59.0635L25.32 58.7176ZM26.0785 59.9778L26.987 59.0019L26.987 59.0019L26.0785 59.9778ZM29.2981 62.9745L30.2065 61.9985L30.2065 61.9985L29.2981 62.9745ZM29.9918 64.0274L31.247 63.5778L31.247 63.5778L29.9918 64.0274ZM31.9003 69.3566L30.645 69.8061L31.9003 69.3566ZM33.301 73.2678L32.0457 73.7173L33.301 73.2678ZM32.1965 76.4328L31.4935 75.2998L31.4935 75.2998L32.1965 76.4328ZM45.7799 52.8285L44.883 51.8419L45.7799 52.8285ZM50.4445 48.5879L51.3414 49.5745L51.3414 49.5745L50.4445 48.5879ZM45.4233 56.3786L44.3481 57.1671V57.1671L45.4233 56.3786ZM48.3877 60.421L47.3125 61.2095L48.3877 60.421ZM48.8717 62.4119L47.5545 62.2049V62.2049L48.8717 62.4119ZM47.8912 68.651L49.2084 68.858V68.858L47.8912 68.651ZM48.0219 69.983L46.7701 70.442L46.7701 70.442L48.0219 69.983ZM48.1073 70.2159L49.3591 69.7569L49.3591 69.7569L48.1073 70.2159ZM51.579 71.7826L51.095 70.5402L51.095 70.5402L51.579 71.7826ZM57.0736 69.6419L56.5895 68.3995H56.5895L57.0736 69.6419ZM58.3311 68.626L59.4439 69.3605V69.3605L58.3311 68.626ZM61.5168 63.7993L62.6296 64.5337L62.6296 64.5337L61.5168 63.7993ZM61.8022 63.4388L60.8321 62.5241L60.8321 62.5241L61.8022 63.4388ZM67.0609 57.8614L66.0908 56.9467L66.0908 56.9467L67.0609 57.8614ZM66.6229 53.8287L67.374 52.7271L67.374 52.7271L66.6229 53.8287ZM64.1639 52.1521L64.915 51.0505L64.8855 51.0304L64.855 51.0119L64.1639 52.1521ZM60.7536 50.0853L61.4446 48.945L61.4446 48.945L60.7536 50.0853ZM59.9624 49.7654L60.2579 48.4652L60.2579 48.4652L59.9624 49.7654ZM55.3439 48.7158L54.9572 49.9918L55.0024 50.0055L55.0484 50.0159L55.3439 48.7158ZM53.0117 48.009L52.625 49.2851H52.625L53.0117 48.009ZM50.2905 9.41831C65.627 10.4814 78.4803 20.5848 83.551 34.4405L86.0553 33.5241C80.6323 18.7059 66.8879 7.89575 50.4749 6.75802L50.2905 9.41831ZM49.0853 8.39568L49.3063 9.32796L51.901 8.71294L51.6801 7.78065L49.0853 8.39568ZM49.3063 9.32797C49.4671 10.0064 49.8024 10.6309 50.2789 11.1398L52.2253 9.31688C52.0664 9.14726 51.9546 8.93907 51.901 8.71294L49.3063 9.32797ZM50.2789 11.1398L51.6893 12.6456L53.6356 10.8227L52.2253 9.31688L50.2789 11.1398ZM51.6893 12.6456C52.0328 13.0123 52.1409 13.541 51.9691 14.0131L54.4749 14.9252C54.9905 13.5088 54.666 11.9228 53.6356 10.8227L51.6893 12.6456ZM51.9691 14.0131L51.3956 15.5887L53.9015 16.5007L54.4749 14.9252L51.9691 14.0131ZM51.3956 15.5887C50.6401 17.6646 51.7104 19.9599 53.7863 20.7155L54.6984 18.2097C54.0064 17.9578 53.6496 17.1927 53.9015 16.5007L51.3956 15.5887ZM53.7863 20.7155L54.8631 21.1074L55.7751 18.6016L54.6984 18.2097L53.7863 20.7155ZM54.8631 21.1074C55.4395 21.3172 55.7984 21.8932 55.7327 22.503L58.384 22.7885C58.581 20.9589 57.5043 19.2309 55.7751 18.6016L54.8631 21.1074ZM55.7327 22.503L55.208 27.3775L57.8593 27.6629L58.384 22.7885L55.7327 22.503ZM55.208 27.3775C55.0833 28.5353 55.4694 29.69 56.2655 30.54L58.2118 28.7171C57.9465 28.4338 57.8177 28.0489 57.8593 27.6629L55.208 27.3775ZM56.2655 30.54L60.4454 35.0029L62.3918 33.18L58.2118 28.7171L56.2655 30.54ZM60.4454 35.0029C61.3914 36.0129 62.7922 36.4622 64.1491 36.1909L63.6263 33.576C63.174 33.6665 62.7071 33.5167 62.3918 33.18L60.4454 35.0029ZM64.1491 36.1909L73.525 34.3165L73.0022 31.7016L63.6263 33.576L64.1491 36.1909ZM73.525 34.3165C73.6763 34.2862 73.8317 34.2825 73.9844 34.3054L74.3804 31.6683C73.9225 31.5996 73.4562 31.6108 73.0022 31.7016L73.525 34.3165ZM73.9844 34.3054L82.7721 35.6251L83.1681 32.988L74.3804 31.6683L73.9844 34.3054ZM82.7721 35.6251C83.4366 35.7249 84.1156 35.6557 84.7464 35.4238L83.8262 32.9209C83.616 32.9982 83.3896 33.0213 83.1681 32.988L82.7721 35.6251ZM84.7464 35.4238L85.2633 35.2338L84.3431 32.7309L83.8262 32.9209L84.7464 35.4238ZM26.3454 79.4156C16.0868 72.5487 9.33724 60.8584 9.33724 47.5922H6.67057C6.67057 61.7855 13.8955 74.2908 24.862 81.6317L26.3454 79.4156ZM9.33724 47.5922C9.33724 33.1101 17.3815 20.505 29.2518 14.0049L27.971 11.6659C15.2806 18.6152 6.67057 32.0972 6.67057 47.5922H9.33724ZM32.4854 14.6196L29.5198 11.8594L27.703 13.8114L30.6686 16.5716L32.4854 14.6196ZM33.2839 15.6547C33.0763 15.2682 32.8065 14.9185 32.4854 14.6196L30.6686 16.5716C30.7756 16.6712 30.8655 16.7878 30.9347 16.9166L33.2839 15.6547ZM35.2021 19.2256L33.2839 15.6547L30.9347 16.9166L32.853 20.4875L35.2021 19.2256ZM38.8673 24.3239L35.1115 19.0802L32.9436 20.633L36.6994 25.8766L38.8673 24.3239ZM39.6154 26.653C39.6154 25.8176 39.3538 25.0031 38.8673 24.3239L36.6994 25.8767C36.8616 26.1031 36.9488 26.3746 36.9488 26.653H39.6154ZM39.6154 31.2735V26.653H36.9488V31.2735H39.6154ZM39.6935 31.723C39.6418 31.5787 39.6154 31.4267 39.6154 31.2735H36.9488C36.9488 31.7331 37.028 32.1893 37.183 32.6221L39.6935 31.723ZM40.9381 35.1982L39.6935 31.723L37.183 32.6221L38.4276 36.0973L40.9381 35.1982ZM39.2813 39.9457C40.8835 38.9515 41.5738 36.9734 40.9381 35.1982L38.4276 36.0973C38.6395 36.6891 38.4094 37.3484 37.8753 37.6798L39.2813 39.9457ZM34.9513 42.6325L39.2813 39.9457L37.8753 37.6798L33.5453 40.3667L34.9513 42.6325ZM34.7459 42.7895C34.8091 42.7307 34.8779 42.6781 34.9513 42.6325L33.5452 40.3667C33.3251 40.5033 33.1187 40.661 32.929 40.8375L34.7459 42.7895ZM30.6814 46.5725L34.7459 42.7895L32.929 40.8375L28.8646 44.6206L30.6814 46.5725ZM25.4745 51.419L30.6814 46.5725L28.8646 44.6206L23.6577 49.467L25.4745 51.419ZM25.0953 52.7408C24.9672 52.264 25.1131 51.7554 25.4745 51.419L23.6577 49.467C22.5734 50.4762 22.1356 52.002 22.5199 53.4326L25.0953 52.7408ZM26.6077 58.3717L25.0953 52.7408L22.5199 53.4326L24.0323 59.0635L26.6077 58.3717ZM26.987 59.0019C26.804 58.8315 26.6725 58.6132 26.6077 58.3717L24.0323 59.0635C24.2269 59.7878 24.6211 60.4428 25.1701 60.9538L26.987 59.0019ZM30.2065 61.9985L26.987 59.0019L25.1701 60.9538L28.3897 63.9505L30.2065 61.9985ZM31.247 63.5778C31.0314 62.9758 30.6746 62.4342 30.2065 61.9985L28.3897 63.9505C28.5457 64.0957 28.6646 64.2763 28.7365 64.4769L31.247 63.5778ZM33.1556 68.907L31.247 63.5778L28.7365 64.4769L30.645 69.8061L33.1556 68.907ZM34.5563 72.8182L33.1556 68.907L30.645 69.8061L32.0457 73.7173L34.5563 72.8182ZM32.8995 77.5657C34.5017 76.5715 35.192 74.5934 34.5563 72.8182L32.0457 73.7173C32.2577 74.3091 32.0275 74.9684 31.4935 75.2998L32.8995 77.5657ZM26.3067 81.6566L32.8995 77.5657L31.4935 75.2998L24.9007 79.3907L26.3067 81.6566ZM46.6768 53.815L51.3414 49.5745L49.5476 47.6013L44.883 51.8419L46.6768 53.815ZM46.4985 55.5901C46.0951 55.04 46.172 54.274 46.6768 53.815L44.883 51.8419C43.3686 53.2187 43.1377 55.5166 44.3481 57.1671L46.4985 55.5901ZM49.4629 59.6325L46.4985 55.5901L44.3481 57.1671L47.3125 61.2095L49.4629 59.6325ZM50.1888 62.6189C50.3542 61.5665 50.0929 60.4916 49.4629 59.6325L47.3125 61.2095C47.5225 61.4958 47.6096 61.8541 47.5545 62.2049L50.1888 62.6189ZM49.2084 68.858L50.1888 62.6189L47.5545 62.2049L46.5741 68.444L49.2084 68.858ZM49.2737 69.524C49.1957 69.3112 49.1732 69.082 49.2084 68.858L46.5741 68.444C46.4685 69.1159 46.5359 69.8035 46.7701 70.442L49.2737 69.524ZM49.3591 69.7569L49.2737 69.524L46.7701 70.442L46.8554 70.6749L49.3591 69.7569ZM51.095 70.5402C50.3991 70.8114 49.6162 70.4581 49.3591 69.7569L46.8554 70.6749C47.6268 72.7785 49.9754 73.8384 52.0631 73.025L51.095 70.5402ZM56.5895 68.3995L51.095 70.5402L52.0631 73.025L57.5576 70.8842L56.5895 68.3995ZM57.2183 67.8916C57.0663 68.1219 56.8466 68.2993 56.5895 68.3995L57.5576 70.8842C58.3289 70.5837 58.988 70.0514 59.4439 69.3605L57.2183 67.8916ZM60.404 63.0648L57.2183 67.8916L59.4439 69.3605L62.6296 64.5337L60.404 63.0648ZM60.8321 62.5241C60.6741 62.6917 60.5309 62.8726 60.404 63.0648L62.6296 64.5337C62.6719 64.4696 62.7197 64.4093 62.7723 64.3535L60.8321 62.5241ZM66.0908 56.9467L60.8321 62.5241L62.7723 64.3535L68.031 58.776L66.0908 56.9467ZM65.8718 54.9304C66.5492 55.3922 66.6532 56.3502 66.0908 56.9467L68.031 58.7761C69.7183 56.9865 69.4061 54.1126 67.374 52.7271L65.8718 54.9304ZM63.4128 53.2538L65.8718 54.9304L67.374 52.7271L64.915 51.0505L63.4128 53.2538ZM60.0625 51.2255L63.4728 53.2924L64.855 51.0119L61.4446 48.945L60.0625 51.2255ZM59.6669 51.0656C59.8065 51.0973 59.9401 51.1513 60.0625 51.2255L61.4446 48.945C61.0774 48.7224 60.6767 48.5604 60.2579 48.4652L59.6669 51.0656ZM55.0484 50.0159L59.6669 51.0656L60.2579 48.4652L55.6394 47.4156L55.0484 50.0159ZM52.625 49.2851L54.9572 49.9918L55.7306 47.4397L53.3984 46.733L52.625 49.2851ZM51.3414 49.5745C51.6886 49.2589 52.176 49.149 52.625 49.2851L53.3984 46.733C52.0514 46.3248 50.5891 46.6546 49.5476 47.6013L51.3414 49.5745Z"
            fill="white" />
        <circle cx="47.6039" cy="47.5922" r="39.6" stroke="white" stroke-width="2.66667" />
    </g>
</svg>